<svg width="231" height="231" viewBox="0 0 231 231" fill="none" xmlns="http://www.w3.org/2000/svg">
<rect x="0.989258" y="1.16818" width="228.203" height="228.203" rx="39.1016" fill="white" fill-opacity="0.1"/>
<rect x="0.989258" y="1.16818" width="228.203" height="228.203" rx="39.1016" stroke="url(#paint0_linear_25_339)" stroke-width="1.79688"/>
<path d="M116.803 43.7009C117.355 43.9716 117.872 44.2731 118.396 44.5941C118.697 44.7696 118.697 44.7696 119.004 44.9486C119.443 45.2052 119.88 45.4641 120.316 45.7249C121.035 46.1544 121.759 46.5764 122.483 46.9969C123.544 47.6126 124.603 48.2306 125.661 48.8506C127.343 49.8349 129.029 50.81 130.718 51.7829C131.002 51.9467 131.286 52.1105 131.579 52.2792C132.155 52.6114 132.732 52.9435 133.308 53.2757C134.737 54.0989 136.165 54.9232 137.594 55.7475C138.164 56.0765 138.734 56.4055 139.305 56.7345C147.288 61.3406 155.272 65.9467 163.256 70.5528C163.539 70.7159 163.821 70.8789 164.113 71.0469C164.679 71.3738 165.246 71.7009 165.812 72.0282C167.137 72.7937 168.463 73.5575 169.793 74.3148C170.262 74.582 170.731 74.8498 171.2 75.1178C171.786 75.4531 172.374 75.7873 172.962 76.1203C177.221 78.559 177.221 78.559 177.864 80.0941C177.931 80.6736 177.931 80.6736 177.932 81.3167C177.933 81.5626 177.935 81.8086 177.937 82.0619C177.936 82.4659 177.936 82.4659 177.934 82.878C177.936 83.1648 177.937 83.4515 177.938 83.747C177.941 84.7112 177.941 85.6754 177.94 86.6397C177.942 87.3296 177.944 88.0196 177.946 88.7095C177.95 90.3912 177.952 92.0728 177.952 93.7544C177.952 95.1212 177.953 96.488 177.955 97.8548C177.96 101.73 177.962 105.604 177.962 109.479C177.962 109.688 177.962 109.897 177.961 110.112C177.961 110.321 177.961 110.53 177.961 110.746C177.961 114.136 177.966 117.526 177.974 120.916C177.981 124.397 177.985 127.877 177.984 131.358C177.984 133.312 177.986 135.266 177.991 137.221C177.997 139.058 177.996 140.896 177.993 142.733C177.992 143.408 177.993 144.083 177.997 144.758C178.001 145.679 177.998 146.599 177.994 147.519C177.997 147.788 177.999 148.056 178.002 148.332C177.987 149.887 177.835 150.759 176.811 151.949C176.09 152.583 175.293 153.013 174.446 153.462C172.824 154.334 171.231 155.252 169.639 156.177C167.381 157.484 165.118 158.78 162.845 160.059C160.937 161.133 159.041 162.224 157.158 163.339C155.738 164.179 154.309 165.001 152.876 165.817C149.913 167.506 146.959 169.21 144.006 170.916C142.824 171.599 141.641 172.28 140.458 172.962C138.23 174.247 136.003 175.533 133.777 176.822C131.555 178.11 129.33 179.394 127.105 180.677C125.738 181.465 124.372 182.253 123.007 183.044C122.536 183.317 122.064 183.59 121.593 183.863C121 184.206 120.407 184.55 119.815 184.894C119.546 185.049 119.278 185.204 119.001 185.364C118.766 185.5 118.531 185.637 118.289 185.777C115.548 187.304 115.548 187.304 113.906 186.956C112.833 186.501 111.847 185.921 110.846 185.327C110.557 185.16 110.267 184.993 109.969 184.821C109.085 184.309 108.205 183.791 107.325 183.271C106.827 182.979 106.328 182.686 105.829 182.394C104.879 181.835 103.931 181.274 102.984 180.71C98.8493 178.25 94.6802 175.851 90.5016 173.468C87.4572 171.731 84.4221 169.979 81.3968 168.21C80.8769 167.906 80.357 167.602 79.8371 167.298C79.5758 167.145 79.3145 166.992 79.0453 166.835C76.7788 165.512 74.5003 164.211 72.2199 162.913C70.163 161.742 68.1175 160.556 66.1002 159.317C65.3655 158.883 64.6264 158.47 63.8763 158.064C62.1829 157.146 60.5143 156.187 58.8467 155.223C58.551 155.053 58.2553 154.883 57.9506 154.707C57.3791 154.378 56.8085 154.046 56.2389 153.713C55.7723 153.44 55.3038 153.17 54.8322 152.906C54.5572 152.746 54.5572 152.746 54.2766 152.584C54.0474 152.455 54.0474 152.455 53.8136 152.323C52.9552 151.602 52.3981 150.877 52.2181 149.767C52.1801 149.021 52.1757 148.282 52.1822 147.535C52.1806 147.249 52.179 146.963 52.1773 146.668C52.1731 145.71 52.1764 144.752 52.1797 143.793C52.1783 143.106 52.1764 142.419 52.1741 141.732C52.1694 140.06 52.1704 138.387 52.1735 136.715C52.1759 135.355 52.1762 133.996 52.175 132.636C52.1749 132.443 52.1747 132.249 52.1746 132.05C52.1742 131.656 52.1739 131.263 52.1735 130.87C52.1705 127.183 52.174 123.496 52.1796 119.809C52.1843 116.647 52.1835 113.485 52.1787 110.322C52.173 106.649 52.1708 102.976 52.1741 99.3022C52.1744 98.9103 52.1747 98.5185 52.175 98.1266C52.1752 97.9338 52.1754 97.741 52.1755 97.5423C52.1764 96.1849 52.1749 94.8274 52.1724 93.4699C52.1692 91.642 52.1715 89.8142 52.1776 87.9863C52.179 87.3151 52.1786 86.644 52.1763 85.9729C52.1734 85.0573 52.177 84.1418 52.1822 83.2262C52.1799 82.9602 52.1775 82.6942 52.1751 82.4202C52.1931 80.8017 52.4219 79.8398 53.3687 78.5148C53.8838 78.0658 53.8838 78.0658 54.4288 77.755C54.737 77.5747 54.737 77.5747 55.0515 77.3907C55.2725 77.2676 55.4935 77.1446 55.7211 77.0178C56.0704 76.816 56.0704 76.816 56.4267 76.61C57.1596 76.1877 57.896 75.7718 58.6328 75.3563C59.0844 75.098 59.5357 74.8393 59.9869 74.5801C60.8956 74.0587 61.8056 73.5399 62.7166 73.0224C64.2574 72.1451 65.7882 71.2509 67.3185 70.3554C69.5106 69.0731 71.7101 67.8048 73.9172 66.5486C75.6619 65.5541 77.3968 64.5433 79.1298 63.5285C81.2309 62.2984 83.3412 61.0868 85.4631 59.893C87.3493 58.8316 89.2254 57.7566 91.0877 56.6539C95.0834 54.2908 99.1179 51.9929 103.151 49.6948C105.231 48.5077 107.298 47.3007 109.364 46.0895C109.857 45.8005 110.352 45.5131 110.847 45.2276C111.291 44.968 111.731 44.7007 112.164 44.4243C113.698 43.4793 115.051 43.0626 116.803 43.7009Z" fill="#00FF8F"/>
<path d="M114.958 54.2997C115.711 54.9663 116.134 55.7104 116.62 56.5863C116.807 56.9213 116.996 57.2562 117.184 57.5908C117.342 57.8718 117.342 57.8718 117.503 58.1585C118.179 59.3466 118.873 60.5234 119.564 61.7024C120.939 64.0521 122.296 66.411 123.644 68.7761C125.102 71.3348 126.574 73.8846 128.061 76.4267C129.681 79.1966 131.283 81.9769 132.885 84.7574C133.708 86.1863 134.532 87.6146 135.356 89.043C135.685 89.6133 136.014 90.1835 136.343 90.7538C136.506 91.0361 136.669 91.3184 136.837 91.6092C138.647 94.7458 140.456 97.8823 142.266 101.019C142.429 101.302 142.592 101.584 142.76 101.876C143.086 102.442 143.413 103.008 143.74 103.574C144.507 104.904 145.274 106.233 146.041 107.563C146.313 108.033 146.584 108.504 146.856 108.975C147.197 109.566 147.538 110.157 147.879 110.748C148.181 111.27 148.481 111.793 148.78 112.317C149.022 112.732 149.27 113.145 149.529 113.551C149.947 114.215 150.226 114.691 150.233 115.487C149.855 116.424 149.356 117.269 148.829 118.127C148.587 118.53 148.346 118.932 148.104 119.335C147.977 119.547 147.85 119.758 147.72 119.976C147.071 121.067 146.446 122.172 145.819 123.276C144.685 125.268 143.538 127.252 142.381 129.231C140.588 132.298 138.812 135.374 137.039 138.452C136.215 139.88 135.391 141.309 134.567 142.737C134.239 143.306 133.911 143.874 133.583 144.443C132.915 145.601 132.247 146.758 131.578 147.916C130.063 150.54 128.549 153.166 127.049 155.799C125.772 158.039 124.475 160.267 123.174 162.492C122.174 164.203 121.185 165.92 120.206 167.643C118.579 170.504 116.904 173.336 115.221 176.164C114.214 175.004 113.5 173.732 112.754 172.397C112.472 171.898 112.19 171.4 111.908 170.901C111.687 170.512 111.687 170.512 111.463 170.115C110.714 168.802 109.949 167.499 109.184 166.195C107.806 163.842 106.456 161.474 105.119 159.097C104.182 157.436 103.227 155.787 102.255 154.146C101.392 152.687 100.548 151.218 99.7089 149.745C97.7803 146.361 95.8287 142.992 93.8638 139.629C92.4193 137.157 90.9859 134.68 89.5694 132.191C88.4161 130.168 87.242 128.158 86.066 126.148C84.899 124.151 83.7468 122.146 82.6058 120.134C82.4874 119.926 82.369 119.718 82.247 119.503C82.075 119.198 82.075 119.198 81.8995 118.887C81.6371 118.439 81.3629 117.998 81.0811 117.563C80.9338 117.333 80.7866 117.103 80.6348 116.867C80.43 116.558 80.43 116.558 80.221 116.242C79.8775 115.456 79.9475 115.119 80.2154 114.311C80.545 113.642 80.545 113.642 80.9659 112.926C81.1228 112.657 81.2797 112.387 81.4414 112.11C81.6123 111.821 81.7831 111.532 81.9591 111.235C82.138 110.929 82.3167 110.623 82.4953 110.317C82.8662 109.681 83.2381 109.047 83.6105 108.412C84.461 106.961 85.2985 105.503 86.1374 104.046C86.465 103.478 86.7927 102.91 87.1203 102.342C87.7922 101.178 88.4639 100.013 89.1355 98.8484C91.1852 95.2944 93.2382 91.7423 95.2951 88.1924C95.6423 87.5931 95.9894 86.9938 96.3366 86.3945C96.4539 86.1918 96.5713 85.9892 96.6922 85.7804C97.3896 84.5759 98.0856 83.3706 98.7805 82.1646C100.388 79.3754 101.998 76.5885 103.624 73.8099C104.976 71.4983 106.311 69.1775 107.638 66.8514C110.038 62.6433 112.449 58.4442 114.958 54.2997Z" fill="#272727"/>
<path d="M127.007 49.6153C127.302 49.7846 127.598 49.9539 127.903 50.1283C128.222 50.3123 128.541 50.4964 128.86 50.6804C129.193 50.8714 129.526 51.0623 129.858 51.2531C132.173 52.5829 134.48 53.9266 136.784 55.2755C138.802 56.4552 140.829 57.617 142.86 58.774C145.418 60.2322 147.968 61.7045 150.51 63.1916C153.28 64.8114 156.06 66.4133 158.841 68.0149C160.552 69.0011 162.263 69.9885 163.974 70.9761C165.441 71.8231 166.91 72.6689 168.379 73.5126C169.812 74.3358 171.243 75.1623 172.672 75.9922C173.116 76.2492 173.559 76.5052 174.004 76.7597C174.493 77.0397 174.979 77.3238 175.464 77.6098C175.707 77.7512 175.951 77.8927 176.202 78.0385C177.152 78.779 177.77 79.5002 177.963 80.6986C178.002 81.4479 178.006 82.1907 177.999 82.941C178.001 83.2282 178.003 83.5154 178.004 83.8114C178.008 84.774 178.005 85.7365 178.002 86.6991C178.003 87.3892 178.005 88.0792 178.007 88.7692C178.012 90.4491 178.011 92.1288 178.008 93.8086C178.006 95.1739 178.005 96.5392 178.006 97.9045C178.007 98.0989 178.007 98.2932 178.007 98.4935C178.007 98.8884 178.008 99.2832 178.008 99.6781C178.011 103.38 178.008 107.082 178.002 110.784C177.997 113.96 177.998 117.136 178.003 120.312C178.008 124.001 178.011 127.69 178.007 131.379C178.007 131.772 178.007 132.166 178.006 132.559C178.006 132.85 178.006 132.85 178.006 133.146C178.005 134.509 178.007 135.873 178.009 137.236C178.012 139.072 178.01 140.907 178.004 142.743C178.003 143.417 178.003 144.091 178.005 144.765C178.008 145.684 178.005 146.603 177.999 147.523C178.002 147.79 178.004 148.058 178.006 148.334C177.989 149.887 177.836 150.76 176.813 151.949C176.12 152.555 175.371 152.969 174.559 153.397C173.552 153.934 172.563 154.492 171.582 155.074C171.357 155.206 171.132 155.339 170.901 155.476C170.447 155.744 169.994 156.015 169.542 156.287C169.332 156.41 169.123 156.534 168.907 156.661C168.719 156.774 168.531 156.886 168.337 157.002C168.103 157.107 168.103 157.107 167.864 157.213C167.69 157.126 167.516 157.04 167.337 156.95C167.631 156.624 167.631 156.624 167.93 156.292C169.38 154.511 169.912 153.053 169.818 150.719C169.408 147.515 167.248 144.603 165.645 141.864C165.135 140.992 164.63 140.117 164.124 139.242C163.766 138.622 163.407 138.002 163.048 137.383C162.579 136.574 162.11 135.765 161.642 134.955C160.461 132.913 159.277 130.873 158.087 128.837C156.641 126.364 155.208 123.885 153.791 121.396C152.812 119.68 151.819 117.973 150.821 116.268C149.475 113.967 148.144 111.658 146.824 109.343C144.974 106.099 143.112 102.862 141.243 99.6284C140.421 98.2059 139.601 96.7828 138.78 95.3598C138.451 94.7895 138.122 94.2192 137.793 93.6489C131.871 83.3839 131.871 83.3839 131.377 82.5283C131.048 81.9584 130.72 81.3886 130.391 80.8188C129.565 79.3868 128.739 77.9546 127.913 76.522C126.155 73.4698 124.389 70.4225 122.611 67.3815C121.608 65.664 120.616 63.9404 119.632 62.2122C118.648 60.4854 117.658 58.762 116.654 57.0468C116.548 56.8634 116.441 56.68 116.331 56.4911C115.828 55.6357 115.315 54.8131 114.697 54.0363C115.047 53.3358 115.514 52.7999 116.013 52.1939C116.121 52.0487 116.229 51.9035 116.341 51.7538C118.19 49.3855 120.371 48.6148 123.272 48.254C124.726 48.2407 125.767 48.9038 127.007 49.6153Z" fill="#008B4E"/>
<path d="M150.226 115.364C150.839 115.931 151.247 116.489 151.654 117.217C151.835 117.539 151.835 117.539 152.02 117.866C152.15 118.099 152.28 118.332 152.414 118.571C152.698 119.075 152.982 119.578 153.267 120.082C153.415 120.345 153.564 120.607 153.717 120.878C154.466 122.194 155.233 123.5 156 124.806C157.378 127.16 158.728 129.527 160.065 131.904C161.001 133.565 161.956 135.213 162.928 136.854C164.208 139.018 165.451 141.204 166.693 143.39C167.053 144.023 167.416 144.654 167.779 145.285C167.993 145.658 168.206 146.032 168.42 146.406C168.516 146.572 168.612 146.738 168.712 146.909C169.899 149 170.282 150.876 169.966 153.265C169.564 154.326 169.042 155.237 168.387 156.161C168.208 156.417 168.029 156.674 167.845 156.938C166.901 158.046 165.616 158.615 164.34 159.27C163.814 159.548 163.289 159.826 162.764 160.106C162.381 160.308 162.381 160.308 161.99 160.515C161.072 161.01 160.178 161.538 159.29 162.083C157.78 163.004 156.254 163.89 154.717 164.764C152.724 165.897 150.74 167.044 148.762 168.202C146.45 169.555 144.13 170.89 141.803 172.216C139.515 173.52 137.233 174.833 134.96 176.164C132.391 177.668 129.81 179.149 127.225 180.623C125.647 181.522 124.071 182.425 122.499 183.335C122.342 183.425 122.186 183.516 122.024 183.609C121.278 184.041 120.531 184.474 119.786 184.907C119.269 185.206 118.752 185.504 118.233 185.799C117.732 186.084 117.235 186.376 116.739 186.671C115.406 187.191 114.471 187.2 113.174 186.641C112.332 186.199 111.514 185.73 110.696 185.245C110.405 185.077 110.114 184.91 109.815 184.737C107.822 183.583 105.841 182.407 103.902 181.165C104.076 181.078 104.249 180.991 104.428 180.902C104.78 181.075 105.131 181.251 105.481 181.428C107.809 181.916 109.529 181.57 111.584 180.441C113.485 178.921 114.572 176.957 115.746 174.865C116.007 174.406 116.268 173.947 116.529 173.488C116.707 173.175 116.885 172.862 117.063 172.549C117.942 170.999 118.842 169.46 119.743 167.923C121.01 165.757 122.262 163.583 123.503 161.403C124.481 159.687 125.474 157.98 126.472 156.276C127.824 153.964 129.16 151.644 130.485 149.317C131.961 146.728 133.452 144.148 134.958 141.575C136.065 139.683 137.155 137.781 138.24 135.876C139.395 133.85 140.57 131.837 141.748 129.825C142.741 128.124 143.724 126.419 144.698 124.707C145.889 122.618 147.091 120.535 148.301 118.456C148.543 118.04 148.543 118.04 148.79 117.615C148.939 117.359 149.088 117.103 149.242 116.84C149.375 116.612 149.508 116.384 149.644 116.149C149.962 115.627 149.962 115.627 150.226 115.364Z" fill="#02FF90"/>
<path d="M79.6885 115.364C80.6126 116.193 81.1808 117.111 81.7612 118.193C81.9694 118.572 82.1781 118.951 82.3873 119.329C82.5017 119.536 82.6161 119.743 82.7339 119.956C83.4396 121.216 84.1731 122.459 84.9032 123.704C86.0711 125.699 87.2306 127.699 88.3742 129.708C89.4959 131.679 90.6334 133.641 91.7794 135.598C93.1572 137.951 94.5079 140.319 95.845 142.696C96.7818 144.358 97.7378 146.008 98.7106 147.65C99.5567 149.08 100.383 150.521 101.205 151.966C102.34 153.958 103.486 155.942 104.643 157.921C106.911 161.8 109.164 165.687 111.388 169.591C111.53 169.84 111.672 170.09 111.818 170.346C112.081 170.807 112.342 171.269 112.604 171.73C112.722 171.937 112.84 172.145 112.961 172.358C113.073 172.555 113.184 172.753 113.3 172.956C113.646 173.54 114.023 174.095 114.405 174.657C114.825 175.325 114.958 175.548 114.952 176.355C114.008 178.556 112.522 180.097 110.533 181.379C107.853 182.378 105.718 181.798 103.217 180.673C102.237 180.21 101.293 179.691 100.35 179.158C100.144 179.043 99.9386 178.928 99.7268 178.809C98.2207 177.962 96.7296 177.092 95.2437 176.21C93.4042 175.121 91.5473 174.064 89.6902 173.006C87.6708 171.855 85.653 170.703 83.653 169.518C82.0819 168.588 80.5016 167.675 78.9153 166.771C69.5398 161.426 69.5398 161.426 66.439 159.526C65.6093 159.019 64.7706 158.574 63.8963 158.151C62.2631 157.268 61.1882 155.471 60.4746 153.792C59.7033 150.234 61.0895 147.247 62.9257 144.267C63.256 143.716 63.586 143.165 63.9158 142.614C64.171 142.191 64.171 142.191 64.4313 141.759C65.2906 140.324 66.1227 138.874 66.956 137.424C67.1215 137.137 67.287 136.849 67.4575 136.554C68.474 134.79 69.4848 133.023 70.4928 131.255C71.9257 128.741 73.3829 126.242 74.8429 123.744C75.6827 122.307 76.5187 120.868 77.3525 119.427C77.5251 119.129 77.5251 119.129 77.7011 118.825C78.3673 117.673 79.0294 116.519 79.6885 115.364Z" fill="#027844"/>
<defs>
<linearGradient id="paint0_linear_25_339" x1="9.11975" y1="10.7243" x2="230.091" y2="230.745" gradientUnits="userSpaceOnUse">
<stop stop-color="#0AC271"/>
<stop offset="0.456222" stop-color="#089356" stop-opacity="0.3"/>
<stop offset="1" stop-color="#0AC271"/>
</linearGradient>
</defs>
</svg>
